<mxfile host="65bd71144e">
    <diagram id="_6p_mA55AHT6oroMER81" name="Data Flow Diagram">
        <mxGraphModel grid="1" page="0" gridSize="10" guides="1" tooltips="1" connect="1" arrows="1" fold="1" pageScale="1" pageWidth="850" pageHeight="1100" math="0" shadow="0">
            <root>
                <mxCell id="0"/>
                <mxCell id="1" parent="0"/>
                <mxCell id="65" value="Backend" style="shape=umlFrame;whiteSpace=wrap;html=1;strokeColor=#FFFFFF;fillColor=none;movable=1;resizable=1;rotatable=1;deletable=1;editable=1;connectable=1;" vertex="1" parent="1">
                    <mxGeometry x="1210" y="-580" width="900" height="539" as="geometry"/>
                </mxCell>
                <mxCell id="92" style="edgeStyle=orthogonalEdgeStyle;rounded=0;html=1;entryX=0;entryY=0.148;entryDx=0;entryDy=0;entryPerimeter=0;" edge="1" parent="1" source="64" target="65">
                    <mxGeometry relative="1" as="geometry"/>
                </mxCell>
                <mxCell id="64" value="Frontend" style="shape=umlFrame;whiteSpace=wrap;html=1;strokeColor=#FFFFFF;fillColor=none;movable=1;resizable=1;rotatable=1;deletable=1;editable=1;connectable=1;" vertex="1" parent="1">
                    <mxGeometry x="-90" y="-580" width="900" height="539" as="geometry"/>
                </mxCell>
                <mxCell id="2" value="TaskForm Component" style="swimlane;fontStyle=0;childLayout=stackLayout;horizontal=1;startSize=26;horizontalStack=0;resizeParent=1;resizeParentMax=0;resizeLast=0;collapsible=1;marginBottom=0;rounded=1;fillColor=#ffcc99;strokeColor=default;fontColor=#000000;" parent="1" vertex="1">
                    <mxGeometry x="-20" y="-536" width="190" height="112" as="geometry"/>
                </mxCell>
                <mxCell id="3" value="+ formData: useState()" style="text;strokeColor=none;fillColor=none;align=left;verticalAlign=top;spacingLeft=4;spacingRight=4;overflow=hidden;rotatable=0;points=[[0,0.5],[1,0.5]];portConstraint=eastwest;" parent="2" vertex="1">
                    <mxGeometry y="26" width="190" height="26" as="geometry"/>
                </mxCell>
                <mxCell id="28" value="" style="line;strokeWidth=1;fillColor=none;align=left;verticalAlign=middle;spacingTop=-1;spacingLeft=3;spacingRight=3;rotatable=0;labelPosition=right;points=[];portConstraint=eastwest;strokeColor=inherit;rounded=1;fontColor=#000000;" parent="2" vertex="1">
                    <mxGeometry y="52" width="190" height="8" as="geometry"/>
                </mxCell>
                <mxCell id="5" value="handleSubmit(e)" style="text;strokeColor=none;fillColor=none;align=left;verticalAlign=top;spacingLeft=4;spacingRight=4;overflow=hidden;rotatable=0;points=[[0,0.5],[1,0.5]];portConstraint=eastwest;" parent="2" vertex="1">
                    <mxGeometry y="60" width="190" height="26" as="geometry"/>
                </mxCell>
                <mxCell id="29" value="sendNotification()" style="text;strokeColor=none;fillColor=none;align=left;verticalAlign=top;spacingLeft=4;spacingRight=4;overflow=hidden;rotatable=0;points=[[0,0.5],[1,0.5]];portConstraint=eastwest;" parent="2" vertex="1">
                    <mxGeometry y="86" width="190" height="26" as="geometry"/>
                </mxCell>
                <mxCell id="7" value="TaskContext" style="swimlane;fontStyle=0;childLayout=stackLayout;horizontal=1;startSize=26;horizontalStack=0;resizeParent=1;resizeParentMax=0;resizeLast=0;collapsible=1;marginBottom=0;rounded=1;fillColor=#ffcc99;strokeColor=#FFFFFF;fontColor=#000000;" parent="1" vertex="1">
                    <mxGeometry x="250" y="-476" width="190" height="268" as="geometry"/>
                </mxCell>
                <mxCell id="8" value="+ tasks: array[object]" style="text;strokeColor=none;fillColor=none;align=left;verticalAlign=top;spacingLeft=4;spacingRight=4;overflow=hidden;rotatable=0;points=[[0,0.5],[1,0.5]];portConstraint=eastwest;" parent="7" vertex="1">
                    <mxGeometry y="26" width="190" height="26" as="geometry"/>
                </mxCell>
                <mxCell id="9" value="+ filteredTasks: array[object]" style="text;strokeColor=none;fillColor=none;align=left;verticalAlign=top;spacingLeft=4;spacingRight=4;overflow=hidden;rotatable=0;points=[[0,0.5],[1,0.5]];portConstraint=eastwest;" parent="7" vertex="1">
                    <mxGeometry y="52" width="190" height="26" as="geometry"/>
                </mxCell>
                <mxCell id="49" value="+ deletedTasks: array[object]" style="text;strokeColor=none;fillColor=none;align=left;verticalAlign=top;spacingLeft=4;spacingRight=4;overflow=hidden;rotatable=0;points=[[0,0.5],[1,0.5]];portConstraint=eastwest;" vertex="1" parent="7">
                    <mxGeometry y="78" width="190" height="26" as="geometry"/>
                </mxCell>
                <mxCell id="10" value="+ filter: string" style="text;strokeColor=none;fillColor=none;align=left;verticalAlign=top;spacingLeft=4;spacingRight=4;overflow=hidden;rotatable=0;points=[[0,0.5],[1,0.5]];portConstraint=eastwest;" parent="7" vertex="1">
                    <mxGeometry y="104" width="190" height="26" as="geometry"/>
                </mxCell>
                <mxCell id="52" value="" style="line;strokeWidth=1;fillColor=none;align=left;verticalAlign=middle;spacingTop=-1;spacingLeft=3;spacingRight=3;rotatable=0;labelPosition=right;points=[];portConstraint=eastwest;strokeColor=inherit;rounded=1;fontColor=#000000;" vertex="1" parent="7">
                    <mxGeometry y="130" width="190" height="8" as="geometry"/>
                </mxCell>
                <mxCell id="53" value="addTask(task)" style="text;strokeColor=none;fillColor=none;align=left;verticalAlign=top;spacingLeft=4;spacingRight=4;overflow=hidden;rotatable=0;points=[[0,0.5],[1,0.5]];portConstraint=eastwest;" vertex="1" parent="7">
                    <mxGeometry y="138" width="190" height="26" as="geometry"/>
                </mxCell>
                <mxCell id="54" value="filterTasks(filteredTasks, filter)" style="text;strokeColor=none;fillColor=none;align=left;verticalAlign=top;spacingLeft=4;spacingRight=4;overflow=hidden;rotatable=0;points=[[0,0.5],[1,0.5]];portConstraint=eastwest;" vertex="1" parent="7">
                    <mxGeometry y="164" width="190" height="26" as="geometry"/>
                </mxCell>
                <mxCell id="55" value="deleteTask(task)" style="text;strokeColor=none;fillColor=none;align=left;verticalAlign=top;spacingLeft=4;spacingRight=4;overflow=hidden;rotatable=0;points=[[0,0.5],[1,0.5]];portConstraint=eastwest;" vertex="1" parent="7">
                    <mxGeometry y="190" width="190" height="26" as="geometry"/>
                </mxCell>
                <mxCell id="56" value="toggleTask(taskId, taskData)" style="text;strokeColor=none;fillColor=none;align=left;verticalAlign=top;spacingLeft=4;spacingRight=4;overflow=hidden;rotatable=0;points=[[0,0.5],[1,0.5]];portConstraint=eastwest;" vertex="1" parent="7">
                    <mxGeometry y="216" width="190" height="26" as="geometry"/>
                </mxCell>
                <mxCell id="57" value="getTasks(userId)" style="text;strokeColor=none;fillColor=none;align=left;verticalAlign=top;spacingLeft=4;spacingRight=4;overflow=hidden;rotatable=0;points=[[0,0.5],[1,0.5]];portConstraint=eastwest;" vertex="1" parent="7">
                    <mxGeometry y="242" width="190" height="26" as="geometry"/>
                </mxCell>
                <mxCell id="11" value="Task Controller" style="swimlane;fontStyle=0;childLayout=stackLayout;horizontal=1;startSize=26;horizontalStack=0;resizeParent=1;resizeParentMax=0;resizeLast=0;collapsible=1;marginBottom=0;rounded=1;fillColor=#ffcc99;strokeColor=#f7fafc;fontColor=#000000;" parent="1" vertex="1">
                    <mxGeometry x="1580" y="-354" width="190" height="182" as="geometry"/>
                </mxCell>
                <mxCell id="12" value="addTask(task)" style="text;strokeColor=none;fillColor=none;align=left;verticalAlign=top;spacingLeft=4;spacingRight=4;overflow=hidden;rotatable=0;points=[[0,0.5],[1,0.5]];portConstraint=eastwest;" parent="11" vertex="1">
                    <mxGeometry y="26" width="190" height="26" as="geometry"/>
                </mxCell>
                <mxCell id="13" value="getTasks(userId)" style="text;strokeColor=none;fillColor=none;align=left;verticalAlign=top;spacingLeft=4;spacingRight=4;overflow=hidden;rotatable=0;points=[[0,0.5],[1,0.5]];portConstraint=eastwest;" parent="11" vertex="1">
                    <mxGeometry y="52" width="190" height="26" as="geometry"/>
                </mxCell>
                <mxCell id="88" value="getTasks(userId)" style="text;strokeColor=none;fillColor=none;align=left;verticalAlign=top;spacingLeft=4;spacingRight=4;overflow=hidden;rotatable=0;points=[[0,0.5],[1,0.5]];portConstraint=eastwest;" vertex="1" parent="11">
                    <mxGeometry y="78" width="190" height="26" as="geometry"/>
                </mxCell>
                <mxCell id="14" value="updateTask(taskId, newTaskData)" style="text;strokeColor=none;fillColor=none;align=left;verticalAlign=top;spacingLeft=4;spacingRight=4;overflow=hidden;rotatable=0;points=[[0,0.5],[1,0.5]];portConstraint=eastwest;" parent="11" vertex="1">
                    <mxGeometry y="104" width="190" height="26" as="geometry"/>
                </mxCell>
                <mxCell id="86" value="deleteTask(taskId)" style="text;strokeColor=none;fillColor=none;align=left;verticalAlign=top;spacingLeft=4;spacingRight=4;overflow=hidden;rotatable=0;points=[[0,0.5],[1,0.5]];portConstraint=eastwest;" vertex="1" parent="11">
                    <mxGeometry y="130" width="190" height="26" as="geometry"/>
                </mxCell>
                <mxCell id="87" value="deleteAllTasks(userId" style="text;strokeColor=none;fillColor=none;align=left;verticalAlign=top;spacingLeft=4;spacingRight=4;overflow=hidden;rotatable=0;points=[[0,0.5],[1,0.5]];portConstraint=eastwest;" vertex="1" parent="11">
                    <mxGeometry y="156" width="190" height="26" as="geometry"/>
                </mxCell>
                <mxCell id="15" value="Task Model" style="swimlane;fontStyle=0;childLayout=stackLayout;horizontal=1;startSize=26;horizontalStack=0;resizeParent=1;resizeParentMax=0;resizeLast=0;collapsible=1;marginBottom=0;rounded=1;fillColor=#ffcc99;strokeColor=#FFFFFF;fontColor=#000000;" parent="1" vertex="1">
                    <mxGeometry x="1900" y="-560" width="190" height="340" as="geometry"/>
                </mxCell>
                <mxCell id="16" value="+ title: string" style="text;strokeColor=none;fillColor=none;align=left;verticalAlign=top;spacingLeft=4;spacingRight=4;overflow=hidden;rotatable=0;points=[[0,0.5],[1,0.5]];portConstraint=eastwest;" parent="15" vertex="1">
                    <mxGeometry y="26" width="190" height="26" as="geometry"/>
                </mxCell>
                <mxCell id="17" value="+ description: string" style="text;strokeColor=none;fillColor=none;align=left;verticalAlign=top;spacingLeft=4;spacingRight=4;overflow=hidden;rotatable=0;points=[[0,0.5],[1,0.5]];portConstraint=eastwest;" parent="15" vertex="1">
                    <mxGeometry y="52" width="190" height="26" as="geometry"/>
                </mxCell>
                <mxCell id="76" value="+ status: string" style="text;strokeColor=none;fillColor=none;align=left;verticalAlign=top;spacingLeft=4;spacingRight=4;overflow=hidden;rotatable=0;points=[[0,0.5],[1,0.5]];portConstraint=eastwest;" vertex="1" parent="15">
                    <mxGeometry y="78" width="190" height="26" as="geometry"/>
                </mxCell>
                <mxCell id="78" value="+ category: string" style="text;strokeColor=none;fillColor=none;align=left;verticalAlign=top;spacingLeft=4;spacingRight=4;overflow=hidden;rotatable=0;points=[[0,0.5],[1,0.5]];portConstraint=eastwest;" vertex="1" parent="15">
                    <mxGeometry y="104" width="190" height="20" as="geometry"/>
                </mxCell>
                <mxCell id="79" value="+ priority: string" style="text;strokeColor=none;fillColor=none;align=left;verticalAlign=top;spacingLeft=4;spacingRight=4;overflow=hidden;rotatable=0;points=[[0,0.5],[1,0.5]];portConstraint=eastwest;" vertex="1" parent="15">
                    <mxGeometry y="124" width="190" height="26" as="geometry"/>
                </mxCell>
                <mxCell id="82" value="+ dueDate: date" style="text;strokeColor=none;fillColor=none;align=left;verticalAlign=top;spacingLeft=4;spacingRight=4;overflow=hidden;rotatable=0;points=[[0,0.5],[1,0.5]];portConstraint=eastwest;" vertex="1" parent="15">
                    <mxGeometry y="150" width="190" height="26" as="geometry"/>
                </mxCell>
                <mxCell id="83" value="+ createdAt: date" style="text;strokeColor=none;fillColor=none;align=left;verticalAlign=top;spacingLeft=4;spacingRight=4;overflow=hidden;rotatable=0;points=[[0,0.5],[1,0.5]];portConstraint=eastwest;" vertex="1" parent="15">
                    <mxGeometry y="176" width="190" height="26" as="geometry"/>
                </mxCell>
                <mxCell id="81" value="+ updatedAt: date" style="text;strokeColor=none;fillColor=none;align=left;verticalAlign=top;spacingLeft=4;spacingRight=4;overflow=hidden;rotatable=0;points=[[0,0.5],[1,0.5]];portConstraint=eastwest;" vertex="1" parent="15">
                    <mxGeometry y="202" width="190" height="26" as="geometry"/>
                </mxCell>
                <mxCell id="80" value="+ ownerId: string" style="text;strokeColor=none;fillColor=none;align=left;verticalAlign=top;spacingLeft=4;spacingRight=4;overflow=hidden;rotatable=0;points=[[0,0.5],[1,0.5]];portConstraint=eastwest;" vertex="1" parent="15">
                    <mxGeometry y="228" width="190" height="26" as="geometry"/>
                </mxCell>
                <mxCell id="77" value="+ sharedWith: [strings]" style="text;strokeColor=none;fillColor=none;align=left;verticalAlign=top;spacingLeft=4;spacingRight=4;overflow=hidden;rotatable=0;points=[[0,0.5],[1,0.5]];portConstraint=eastwest;" vertex="1" parent="15">
                    <mxGeometry y="254" width="190" height="26" as="geometry"/>
                </mxCell>
                <mxCell id="75" value="+ permissions: string" style="text;strokeColor=none;fillColor=none;align=left;verticalAlign=top;spacingLeft=4;spacingRight=4;overflow=hidden;rotatable=0;points=[[0,0.5],[1,0.5]];portConstraint=eastwest;" vertex="1" parent="15">
                    <mxGeometry y="280" width="190" height="26" as="geometry"/>
                </mxCell>
                <mxCell id="100" value="" style="line;strokeWidth=1;fillColor=none;align=left;verticalAlign=middle;spacingTop=-1;spacingLeft=3;spacingRight=3;rotatable=0;labelPosition=right;points=[];portConstraint=eastwest;strokeColor=inherit;" vertex="1" parent="15">
                    <mxGeometry y="306" width="190" height="8" as="geometry"/>
                </mxCell>
                <mxCell id="101" value="validate()" style="text;strokeColor=none;fillColor=none;align=left;verticalAlign=top;spacingLeft=4;spacingRight=4;overflow=hidden;rotatable=0;points=[[0,0.5],[1,0.5]];portConstraint=eastwest;" vertex="1" parent="15">
                    <mxGeometry y="314" width="190" height="26" as="geometry"/>
                </mxCell>
                <mxCell id="19" value="Task Routes" style="swimlane;fontStyle=0;childLayout=stackLayout;horizontal=1;startSize=26;horizontalStack=0;resizeParent=1;resizeParentMax=0;resizeLast=0;collapsible=1;marginBottom=0;rounded=1;fillColor=#ffcc99;strokeColor=#36393d;fontColor=#000000;" parent="1" vertex="1">
                    <mxGeometry x="1250" y="-536" width="190" height="182" as="geometry"/>
                </mxCell>
                <mxCell id="20" value="POST: /add" style="text;strokeColor=none;fillColor=none;align=left;verticalAlign=top;spacingLeft=4;spacingRight=4;overflow=hidden;rotatable=0;points=[[0,0.5],[1,0.5]];portConstraint=eastwest;" parent="19" vertex="1">
                    <mxGeometry y="26" width="190" height="26" as="geometry"/>
                </mxCell>
                <mxCell id="21" value="GET: /:userId" style="text;strokeColor=none;fillColor=none;align=left;verticalAlign=top;spacingLeft=4;spacingRight=4;overflow=hidden;rotatable=0;points=[[0,0.5],[1,0.5]];portConstraint=eastwest;" parent="19" vertex="1">
                    <mxGeometry y="52" width="190" height="26" as="geometry"/>
                </mxCell>
                <mxCell id="22" value="GET: /:taskId" style="text;strokeColor=none;fillColor=none;align=left;verticalAlign=top;spacingLeft=4;spacingRight=4;overflow=hidden;rotatable=0;points=[[0,0.5],[1,0.5]];portConstraint=eastwest;" parent="19" vertex="1">
                    <mxGeometry y="78" width="190" height="26" as="geometry"/>
                </mxCell>
                <mxCell id="90" value="PUT: /:taskId" style="text;strokeColor=none;fillColor=none;align=left;verticalAlign=top;spacingLeft=4;spacingRight=4;overflow=hidden;rotatable=0;points=[[0,0.5],[1,0.5]];portConstraint=eastwest;" vertex="1" parent="19">
                    <mxGeometry y="104" width="190" height="26" as="geometry"/>
                </mxCell>
                <mxCell id="89" value="DELETE: /:taskId" style="text;strokeColor=none;fillColor=none;align=left;verticalAlign=top;spacingLeft=4;spacingRight=4;overflow=hidden;rotatable=0;points=[[0,0.5],[1,0.5]];portConstraint=eastwest;" vertex="1" parent="19">
                    <mxGeometry y="130" width="190" height="26" as="geometry"/>
                </mxCell>
                <mxCell id="91" value="DELETE: /all/:userId" style="text;strokeColor=none;fillColor=none;align=left;verticalAlign=top;spacingLeft=4;spacingRight=4;overflow=hidden;rotatable=0;points=[[0,0.5],[1,0.5]];portConstraint=eastwest;" vertex="1" parent="19">
                    <mxGeometry y="156" width="190" height="26" as="geometry"/>
                </mxCell>
                <mxCell id="30" value="taskService" style="swimlane;fontStyle=0;childLayout=stackLayout;horizontal=1;startSize=26;horizontalStack=0;resizeParent=1;resizeParentMax=0;resizeLast=0;collapsible=1;marginBottom=0;rounded=1;fillColor=#ffcc99;strokeColor=#36393d;fontColor=#000000;" parent="1" vertex="1">
                    <mxGeometry x="540" y="-364" width="190" height="156" as="geometry"/>
                </mxCell>
                <mxCell id="32" value="createTask(task)" style="text;strokeColor=none;fillColor=none;align=left;verticalAlign=top;spacingLeft=4;spacingRight=4;overflow=hidden;rotatable=0;points=[[0,0.5],[1,0.5]];portConstraint=eastwest;" parent="30" vertex="1">
                    <mxGeometry y="26" width="190" height="26" as="geometry"/>
                </mxCell>
                <mxCell id="58" value="updateTask(taskId, newTaskData)" style="text;strokeColor=none;fillColor=none;align=left;verticalAlign=top;spacingLeft=4;spacingRight=4;overflow=hidden;rotatable=0;points=[[0,0.5],[1,0.5]];portConstraint=eastwest;" vertex="1" parent="30">
                    <mxGeometry y="52" width="190" height="26" as="geometry"/>
                </mxCell>
                <mxCell id="33" value="deleteTask(taskId)" style="text;strokeColor=none;fillColor=none;align=left;verticalAlign=top;spacingLeft=4;spacingRight=4;overflow=hidden;rotatable=0;points=[[0,0.5],[1,0.5]];portConstraint=eastwest;" parent="30" vertex="1">
                    <mxGeometry y="78" width="190" height="26" as="geometry"/>
                </mxCell>
                <mxCell id="59" value="deleteAllTasks(userId" style="text;strokeColor=none;fillColor=none;align=left;verticalAlign=top;spacingLeft=4;spacingRight=4;overflow=hidden;rotatable=0;points=[[0,0.5],[1,0.5]];portConstraint=eastwest;" vertex="1" parent="30">
                    <mxGeometry y="104" width="190" height="26" as="geometry"/>
                </mxCell>
                <mxCell id="31" value="getTasks(userId)" style="text;strokeColor=none;fillColor=none;align=left;verticalAlign=top;spacingLeft=4;spacingRight=4;overflow=hidden;rotatable=0;points=[[0,0.5],[1,0.5]];portConstraint=eastwest;" parent="30" vertex="1">
                    <mxGeometry y="130" width="190" height="26" as="geometry"/>
                </mxCell>
                <mxCell id="48" style="edgeStyle=orthogonalEdgeStyle;html=1;entryX=0;entryY=0.5;entryDx=0;entryDy=0;exitX=1;exitY=0.5;exitDx=0;exitDy=0;rounded=0;" edge="1" parent="1" source="39" target="3">
                    <mxGeometry relative="1" as="geometry"/>
                </mxCell>
                <mxCell id="38" value="formData" style="swimlane;fontStyle=0;childLayout=stackLayout;horizontal=1;startSize=26;horizontalStack=0;resizeParent=1;resizeParentMax=0;resizeLast=0;collapsible=1;marginBottom=0;rounded=1;fillColor=#6a00ff;strokeColor=#3700CC;fontColor=#ffffff;" vertex="1" parent="1">
                    <mxGeometry x="-30" y="-345" width="190" height="260" as="geometry"/>
                </mxCell>
                <mxCell id="39" value="+ title: string" style="text;strokeColor=none;fillColor=none;align=left;verticalAlign=top;spacingLeft=4;spacingRight=4;overflow=hidden;rotatable=0;points=[[0,0.5],[1,0.5]];portConstraint=eastwest;" vertex="1" parent="38">
                    <mxGeometry y="26" width="190" height="26" as="geometry"/>
                </mxCell>
                <mxCell id="40" value="+ description: string" style="text;strokeColor=none;fillColor=none;align=left;verticalAlign=top;spacingLeft=4;spacingRight=4;overflow=hidden;rotatable=0;points=[[0,0.5],[1,0.5]];portConstraint=eastwest;" vertex="1" parent="38">
                    <mxGeometry y="52" width="190" height="26" as="geometry"/>
                </mxCell>
                <mxCell id="42" value="+ status: string" style="text;strokeColor=none;fillColor=none;align=left;verticalAlign=top;spacingLeft=4;spacingRight=4;overflow=hidden;rotatable=0;points=[[0,0.5],[1,0.5]];portConstraint=eastwest;" vertex="1" parent="38">
                    <mxGeometry y="78" width="190" height="26" as="geometry"/>
                </mxCell>
                <mxCell id="43" value="+ category: string" style="text;strokeColor=none;fillColor=none;align=left;verticalAlign=top;spacingLeft=4;spacingRight=4;overflow=hidden;rotatable=0;points=[[0,0.5],[1,0.5]];portConstraint=eastwest;" vertex="1" parent="38">
                    <mxGeometry y="104" width="190" height="26" as="geometry"/>
                </mxCell>
                <mxCell id="46" value="+ priority: string" style="text;strokeColor=none;fillColor=none;align=left;verticalAlign=top;spacingLeft=4;spacingRight=4;overflow=hidden;rotatable=0;points=[[0,0.5],[1,0.5]];portConstraint=eastwest;" vertex="1" parent="38">
                    <mxGeometry y="130" width="190" height="26" as="geometry"/>
                </mxCell>
                <mxCell id="47" value="+ dueDate: string" style="text;strokeColor=none;fillColor=none;align=left;verticalAlign=top;spacingLeft=4;spacingRight=4;overflow=hidden;rotatable=0;points=[[0,0.5],[1,0.5]];portConstraint=eastwest;" vertex="1" parent="38">
                    <mxGeometry y="156" width="190" height="26" as="geometry"/>
                </mxCell>
                <mxCell id="45" value="+ tags: string" style="text;strokeColor=none;fillColor=none;align=left;verticalAlign=top;spacingLeft=4;spacingRight=4;overflow=hidden;rotatable=0;points=[[0,0.5],[1,0.5]];portConstraint=eastwest;" vertex="1" parent="38">
                    <mxGeometry y="182" width="190" height="26" as="geometry"/>
                </mxCell>
                <mxCell id="44" value="+ createdAt: string" style="text;strokeColor=none;fillColor=none;align=left;verticalAlign=top;spacingLeft=4;spacingRight=4;overflow=hidden;rotatable=0;points=[[0,0.5],[1,0.5]];portConstraint=eastwest;" vertex="1" parent="38">
                    <mxGeometry y="208" width="190" height="26" as="geometry"/>
                </mxCell>
                <mxCell id="41" value="+ ownerId: string" style="text;strokeColor=none;fillColor=none;align=left;verticalAlign=top;spacingLeft=4;spacingRight=4;overflow=hidden;rotatable=0;points=[[0,0.5],[1,0.5]];portConstraint=eastwest;" vertex="1" parent="38">
                    <mxGeometry y="234" width="190" height="26" as="geometry"/>
                </mxCell>
                <mxCell id="51" style="edgeStyle=orthogonalEdgeStyle;html=1;exitX=1;exitY=0.5;exitDx=0;exitDy=0;" edge="1" parent="1" source="5">
                    <mxGeometry relative="1" as="geometry">
                        <mxPoint x="170" y="-463" as="sourcePoint"/>
                        <mxPoint x="250" y="-463" as="targetPoint"/>
                    </mxGeometry>
                </mxCell>
                <mxCell id="60" style="edgeStyle=orthogonalEdgeStyle;html=1;entryX=0;entryY=0.5;entryDx=0;entryDy=0;rounded=0;" edge="1" parent="1" source="53" target="32">
                    <mxGeometry relative="1" as="geometry"/>
                </mxCell>
                <mxCell id="61" style="edgeStyle=orthogonalEdgeStyle;rounded=0;html=1;exitX=1;exitY=0.5;exitDx=0;exitDy=0;entryX=0;entryY=0.5;entryDx=0;entryDy=0;" edge="1" parent="1" source="55" target="33">
                    <mxGeometry relative="1" as="geometry"/>
                </mxCell>
                <mxCell id="62" style="edgeStyle=orthogonalEdgeStyle;rounded=0;html=1;exitX=1;exitY=0.5;exitDx=0;exitDy=0;entryX=0;entryY=0.5;entryDx=0;entryDy=0;" edge="1" parent="1" source="56" target="58">
                    <mxGeometry relative="1" as="geometry"/>
                </mxCell>
                <mxCell id="63" style="edgeStyle=orthogonalEdgeStyle;rounded=0;html=1;exitX=1;exitY=0.5;exitDx=0;exitDy=0;entryX=0;entryY=0.5;entryDx=0;entryDy=0;" edge="1" parent="1" source="57" target="31">
                    <mxGeometry relative="1" as="geometry"/>
                </mxCell>
                <mxCell id="93" style="edgeStyle=orthogonalEdgeStyle;rounded=0;html=1;exitX=1;exitY=0.5;exitDx=0;exitDy=0;entryX=0;entryY=0.5;entryDx=0;entryDy=0;" edge="1" parent="1" source="20" target="12">
                    <mxGeometry relative="1" as="geometry">
                        <Array as="points">
                            <mxPoint x="1540" y="-497"/>
                            <mxPoint x="1540" y="-315"/>
                        </Array>
                    </mxGeometry>
                </mxCell>
                <mxCell id="94" style="edgeStyle=orthogonalEdgeStyle;rounded=0;html=1;exitX=1;exitY=0.5;exitDx=0;exitDy=0;entryX=0;entryY=0.5;entryDx=0;entryDy=0;" edge="1" parent="1" source="21" target="13">
                    <mxGeometry relative="1" as="geometry">
                        <Array as="points">
                            <mxPoint x="1530" y="-471"/>
                            <mxPoint x="1530" y="-289"/>
                        </Array>
                    </mxGeometry>
                </mxCell>
                <mxCell id="95" style="edgeStyle=orthogonalEdgeStyle;rounded=0;html=1;exitX=1;exitY=0.5;exitDx=0;exitDy=0;entryX=0;entryY=0.5;entryDx=0;entryDy=0;" edge="1" parent="1" source="22" target="88">
                    <mxGeometry relative="1" as="geometry">
                        <Array as="points">
                            <mxPoint x="1520" y="-445"/>
                            <mxPoint x="1520" y="-263"/>
                        </Array>
                    </mxGeometry>
                </mxCell>
                <mxCell id="97" style="edgeStyle=orthogonalEdgeStyle;rounded=0;html=1;exitX=1;exitY=0.5;exitDx=0;exitDy=0;entryX=0;entryY=0.5;entryDx=0;entryDy=0;" edge="1" parent="1" source="90" target="14">
                    <mxGeometry relative="1" as="geometry">
                        <Array as="points">
                            <mxPoint x="1510" y="-419"/>
                            <mxPoint x="1510" y="-237"/>
                        </Array>
                    </mxGeometry>
                </mxCell>
                <mxCell id="98" style="edgeStyle=orthogonalEdgeStyle;rounded=0;html=1;exitX=1;exitY=0.5;exitDx=0;exitDy=0;entryX=0;entryY=0.5;entryDx=0;entryDy=0;" edge="1" parent="1" source="89" target="86">
                    <mxGeometry relative="1" as="geometry">
                        <Array as="points">
                            <mxPoint x="1490" y="-393"/>
                            <mxPoint x="1490" y="-211"/>
                        </Array>
                    </mxGeometry>
                </mxCell>
                <mxCell id="99" style="edgeStyle=orthogonalEdgeStyle;rounded=0;html=1;exitX=1;exitY=0.5;exitDx=0;exitDy=0;entryX=0;entryY=0.5;entryDx=0;entryDy=0;" edge="1" parent="1" source="91" target="87">
                    <mxGeometry relative="1" as="geometry">
                        <Array as="points">
                            <mxPoint x="1470" y="-367"/>
                            <mxPoint x="1470" y="-185"/>
                        </Array>
                    </mxGeometry>
                </mxCell>
                <mxCell id="102" style="edgeStyle=orthogonalEdgeStyle;rounded=0;html=1;exitX=1;exitY=0.5;exitDx=0;exitDy=0;entryX=0;entryY=0.5;entryDx=0;entryDy=0;" edge="1" parent="1" source="12" target="101">
                    <mxGeometry relative="1" as="geometry"/>
                </mxCell>
            </root>
        </mxGraphModel>
    </diagram>
    <diagram id="-_1ezvCN1RVbjZoBQtXI" name="Create Task Sequence">
        <mxGraphModel dx="3363" dy="2027" grid="1" gridSize="10" guides="1" tooltips="1" connect="1" arrows="1" fold="1" page="0" pageScale="1" pageWidth="850" pageHeight="1100" math="0" shadow="0">
            <root>
                <mxCell id="0"/>
                <mxCell id="1" parent="0"/>
                <mxCell id="ZmFlC2bX8gDt5VkyaATn-1" value="" style="shape=umlLifeline;participant=umlActor;perimeter=lifelinePerimeter;whiteSpace=wrap;html=1;container=1;collapsible=0;recursiveResize=0;verticalAlign=top;spacingTop=36;outlineConnect=0;strokeColor=#f7fafc;fillColor=#FFFFFF;" vertex="1" parent="1">
                    <mxGeometry x="-300" y="-280" width="20" height="760" as="geometry"/>
                </mxCell>
                <mxCell id="ZmFlC2bX8gDt5VkyaATn-2" value="" style="html=1;points=[];perimeter=orthogonalPerimeter;strokeColor=#005700;fillColor=#008a00;fontColor=#ffffff;" vertex="1" parent="ZmFlC2bX8gDt5VkyaATn-1">
                    <mxGeometry x="5" y="60" width="10" height="420" as="geometry"/>
                </mxCell>
                <mxCell id="ZmFlC2bX8gDt5VkyaATn-3" value="User" style="text;strokeColor=none;align=center;fillColor=none;html=1;verticalAlign=middle;whiteSpace=wrap;rounded=0;" vertex="1" parent="1">
                    <mxGeometry x="-320" y="-310" width="60" height="30" as="geometry"/>
                </mxCell>
                <mxCell id="ZmFlC2bX8gDt5VkyaATn-4" value="TaskForm" style="shape=umlLifeline;perimeter=lifelinePerimeter;whiteSpace=wrap;html=1;container=1;collapsible=0;recursiveResize=0;outlineConnect=0;strokeColor=#FFFFFF;fillColor=#6a00ff;fontColor=#ffffff;" vertex="1" parent="1">
                    <mxGeometry x="-53" y="-280" width="100" height="750" as="geometry"/>
                </mxCell>
                <mxCell id="w_Li5rTRc2VOVZp4N8eY-10" value="" style="html=1;points=[];perimeter=orthogonalPerimeter;strokeColor=#3700CC;fillColor=#6a00ff;fontColor=#ffffff;" vertex="1" parent="ZmFlC2bX8gDt5VkyaATn-4">
                    <mxGeometry x="45" y="80" width="10" height="370" as="geometry"/>
                </mxCell>
                <mxCell id="_oWnFJi08e9e3v-AHgOI-1" value="TaskContext" style="shape=umlLifeline;perimeter=lifelinePerimeter;whiteSpace=wrap;html=1;container=1;collapsible=0;recursiveResize=0;outlineConnect=0;strokeColor=#FFFFFF;fillColor=#1ba1e2;fontColor=#ffffff;" vertex="1" parent="1">
                    <mxGeometry x="234" y="-280" width="100" height="750" as="geometry"/>
                </mxCell>
                <mxCell id="w_Li5rTRc2VOVZp4N8eY-13" value="" style="html=1;points=[];perimeter=orthogonalPerimeter;strokeColor=#006EAF;fillColor=#1ba1e2;fontColor=#ffffff;" vertex="1" parent="_oWnFJi08e9e3v-AHgOI-1">
                    <mxGeometry x="45" y="90" width="10" height="340" as="geometry"/>
                </mxCell>
                <mxCell id="08ULeDQdYxicm4fCYWU1-8" value="SortTasks by createdAt date&lt;br&gt;and setTasks to sortedTasks" style="edgeStyle=orthogonalEdgeStyle;html=1;align=left;spacingLeft=2;endArrow=block;rounded=0;entryX=1;entryY=0;" edge="1" parent="_oWnFJi08e9e3v-AHgOI-1">
                    <mxGeometry relative="1" as="geometry">
                        <mxPoint x="55" y="380" as="sourcePoint"/>
                        <Array as="points">
                            <mxPoint x="85" y="380"/>
                        </Array>
                        <mxPoint x="60" y="400" as="targetPoint"/>
                    </mxGeometry>
                </mxCell>
                <mxCell id="_oWnFJi08e9e3v-AHgOI-5" value="taskService" style="shape=umlLifeline;perimeter=lifelinePerimeter;whiteSpace=wrap;html=1;container=1;collapsible=0;recursiveResize=0;outlineConnect=0;strokeColor=#FFFFFF;fillColor=#0050ef;fontColor=#ffffff;" vertex="1" parent="1">
                    <mxGeometry x="521" y="-280" width="100" height="750" as="geometry"/>
                </mxCell>
                <mxCell id="KS9cdFTpRLpQNZ_aqoSr-1" value="" style="html=1;points=[];perimeter=orthogonalPerimeter;strokeColor=#001DBC;fillColor=#0050ef;fontColor=#ffffff;" vertex="1" parent="_oWnFJi08e9e3v-AHgOI-5">
                    <mxGeometry x="45" y="100" width="10" height="250" as="geometry"/>
                </mxCell>
                <mxCell id="_oWnFJi08e9e3v-AHgOI-8" value="taskRoutes" style="shape=umlLifeline;perimeter=lifelinePerimeter;whiteSpace=wrap;html=1;container=1;collapsible=0;recursiveResize=0;outlineConnect=0;strokeColor=#FFFFFF;fillColor=#d80073;fontColor=#ffffff;" vertex="1" parent="1">
                    <mxGeometry x="809" y="-280" width="100" height="750" as="geometry"/>
                </mxCell>
                <mxCell id="a7mjspnl8OJCoX8pxgsp-1" value="" style="html=1;points=[];perimeter=orthogonalPerimeter;strokeColor=#A50040;fillColor=#d80073;fontColor=#ffffff;" vertex="1" parent="_oWnFJi08e9e3v-AHgOI-8">
                    <mxGeometry x="45" y="110" width="10" height="220" as="geometry"/>
                </mxCell>
                <mxCell id="1Y-mKMKKc6OOz6_AkFGi-2" value="taskController" style="shape=umlLifeline;perimeter=lifelinePerimeter;whiteSpace=wrap;html=1;container=1;collapsible=0;recursiveResize=0;outlineConnect=0;strokeColor=#FFFFFF;fillColor=#a20025;fontColor=#ffffff;" vertex="1" parent="1">
                    <mxGeometry x="1096" y="-280" width="100" height="750" as="geometry"/>
                </mxCell>
                <mxCell id="a7mjspnl8OJCoX8pxgsp-4" value="" style="html=1;points=[];perimeter=orthogonalPerimeter;strokeColor=#6F0000;fillColor=#a20025;fontColor=#ffffff;" vertex="1" parent="1Y-mKMKKc6OOz6_AkFGi-2">
                    <mxGeometry x="45" y="127.5" width="10" height="182.5" as="geometry"/>
                </mxCell>
                <mxCell id="w_Li5rTRc2VOVZp4N8eY-1" value="taskModel" style="shape=umlLifeline;perimeter=lifelinePerimeter;whiteSpace=wrap;html=1;container=1;collapsible=0;recursiveResize=0;outlineConnect=0;strokeColor=#FFFFFF;fillColor=#fa6800;fontColor=#000000;" vertex="1" parent="1">
                    <mxGeometry x="1383" y="-280" width="100" height="750" as="geometry"/>
                </mxCell>
                <mxCell id="08ULeDQdYxicm4fCYWU1-1" value="" style="html=1;points=[];perimeter=orthogonalPerimeter;strokeColor=#C73500;fillColor=#fa6800;fontColor=#000000;" vertex="1" parent="w_Li5rTRc2VOVZp4N8eY-1">
                    <mxGeometry x="45.07" y="135" width="10" height="35" as="geometry"/>
                </mxCell>
                <mxCell id="w_Li5rTRc2VOVZp4N8eY-2" value="Firebase FireStore" style="shape=umlLifeline;perimeter=lifelinePerimeter;whiteSpace=wrap;html=1;container=1;collapsible=0;recursiveResize=0;outlineConnect=0;strokeColor=#FFFFFF;fillColor=#f0a30a;fontColor=#000000;" vertex="1" parent="1">
                    <mxGeometry x="1670" y="-280" width="100" height="750" as="geometry"/>
                </mxCell>
                <mxCell id="08ULeDQdYxicm4fCYWU1-4" value="" style="html=1;points=[];perimeter=orthogonalPerimeter;strokeColor=#BD7000;fillColor=#f0a30a;fontColor=#000000;" vertex="1" parent="w_Li5rTRc2VOVZp4N8eY-2">
                    <mxGeometry x="45" y="200" width="10" height="80" as="geometry"/>
                </mxCell>
                <mxCell id="w_Li5rTRc2VOVZp4N8eY-11" value="handleSubmit" style="html=1;verticalAlign=bottom;endArrow=block;entryX=0;entryY=0;rounded=0;" edge="1" target="w_Li5rTRc2VOVZp4N8eY-10" parent="1" source="ZmFlC2bX8gDt5VkyaATn-2">
                    <mxGeometry relative="1" as="geometry">
                        <mxPoint x="-114" y="-200" as="sourcePoint"/>
                    </mxGeometry>
                </mxCell>
                <mxCell id="w_Li5rTRc2VOVZp4N8eY-12" value="renderNewTask()" style="html=1;verticalAlign=bottom;endArrow=open;dashed=1;endSize=8;exitX=0;exitY=0.95;rounded=0;" edge="1" source="w_Li5rTRc2VOVZp4N8eY-10" parent="1" target="ZmFlC2bX8gDt5VkyaATn-2">
                    <mxGeometry relative="1" as="geometry">
                        <mxPoint x="-114" y="-124" as="targetPoint"/>
                    </mxGeometry>
                </mxCell>
                <mxCell id="w_Li5rTRc2VOVZp4N8eY-14" value="addTask(formData)" style="html=1;verticalAlign=bottom;endArrow=block;entryX=0;entryY=0;rounded=0;" edge="1" target="w_Li5rTRc2VOVZp4N8eY-13" parent="1" source="ZmFlC2bX8gDt5VkyaATn-4">
                    <mxGeometry relative="1" as="geometry">
                        <mxPoint x="185" y="-190" as="sourcePoint"/>
                    </mxGeometry>
                </mxCell>
                <mxCell id="w_Li5rTRc2VOVZp4N8eY-15" value="return" style="html=1;verticalAlign=bottom;endArrow=open;dashed=1;endSize=8;exitX=0;exitY=0.95;rounded=0;" edge="1" source="w_Li5rTRc2VOVZp4N8eY-13" parent="1" target="ZmFlC2bX8gDt5VkyaATn-4">
                    <mxGeometry relative="1" as="geometry">
                        <mxPoint x="185" y="-114" as="targetPoint"/>
                    </mxGeometry>
                </mxCell>
                <mxCell id="KS9cdFTpRLpQNZ_aqoSr-2" value="createTask(task)" style="html=1;verticalAlign=bottom;endArrow=block;entryX=0;entryY=0;rounded=0;" edge="1" target="KS9cdFTpRLpQNZ_aqoSr-1" parent="1" source="_oWnFJi08e9e3v-AHgOI-1">
                    <mxGeometry relative="1" as="geometry">
                        <mxPoint x="465" y="-180" as="sourcePoint"/>
                    </mxGeometry>
                </mxCell>
                <mxCell id="KS9cdFTpRLpQNZ_aqoSr-3" value="taskId" style="html=1;verticalAlign=bottom;endArrow=open;dashed=1;endSize=8;exitX=0;exitY=0.95;rounded=0;" edge="1" source="KS9cdFTpRLpQNZ_aqoSr-1" parent="1" target="_oWnFJi08e9e3v-AHgOI-1">
                    <mxGeometry relative="1" as="geometry">
                        <mxPoint x="465" y="-104" as="targetPoint"/>
                    </mxGeometry>
                </mxCell>
                <mxCell id="a7mjspnl8OJCoX8pxgsp-3" value="taskId" style="html=1;verticalAlign=bottom;endArrow=open;dashed=1;endSize=8;exitX=0;exitY=0.95;rounded=0;" edge="1" source="a7mjspnl8OJCoX8pxgsp-1" parent="1" target="_oWnFJi08e9e3v-AHgOI-5">
                    <mxGeometry relative="1" as="geometry">
                        <mxPoint x="740" y="-94" as="targetPoint"/>
                    </mxGeometry>
                </mxCell>
                <mxCell id="a7mjspnl8OJCoX8pxgsp-2" value="POST: /add" style="html=1;verticalAlign=bottom;endArrow=block;entryX=0;entryY=0;rounded=0;" edge="1" target="a7mjspnl8OJCoX8pxgsp-1" parent="1" source="_oWnFJi08e9e3v-AHgOI-5">
                    <mxGeometry relative="1" as="geometry">
                        <mxPoint x="740" y="-170" as="sourcePoint"/>
                    </mxGeometry>
                </mxCell>
                <mxCell id="a7mjspnl8OJCoX8pxgsp-6" value="taskId" style="html=1;verticalAlign=bottom;endArrow=open;dashed=1;endSize=8;exitX=0;exitY=0.95;rounded=0;" edge="1" source="a7mjspnl8OJCoX8pxgsp-4" parent="1" target="_oWnFJi08e9e3v-AHgOI-8">
                    <mxGeometry relative="1" as="geometry">
                        <mxPoint x="829.9985714285716" y="-62.25" as="targetPoint"/>
                    </mxGeometry>
                </mxCell>
                <mxCell id="a7mjspnl8OJCoX8pxgsp-5" value="addTask(task)" style="html=1;verticalAlign=bottom;endArrow=block;entryX=0;entryY=0;rounded=0;" edge="1" target="a7mjspnl8OJCoX8pxgsp-4" parent="1" source="_oWnFJi08e9e3v-AHgOI-8">
                    <mxGeometry relative="1" as="geometry">
                        <mxPoint x="829.9985714285716" y="-152.5" as="sourcePoint"/>
                    </mxGeometry>
                </mxCell>
                <mxCell id="08ULeDQdYxicm4fCYWU1-2" value="validate()" style="html=1;verticalAlign=bottom;endArrow=block;entryX=0;entryY=0;rounded=0;" edge="1" target="08ULeDQdYxicm4fCYWU1-1" parent="1">
                    <mxGeometry relative="1" as="geometry">
                        <mxPoint x="1114.9985714285715" y="-145" as="sourcePoint"/>
                    </mxGeometry>
                </mxCell>
                <mxCell id="08ULeDQdYxicm4fCYWU1-3" value="return" style="html=1;verticalAlign=bottom;endArrow=open;dashed=1;endSize=8;exitX=0;exitY=0.95;rounded=0;" edge="1" source="08ULeDQdYxicm4fCYWU1-1" parent="1" target="1Y-mKMKKc6OOz6_AkFGi-2">
                    <mxGeometry relative="1" as="geometry">
                        <mxPoint x="1114.9985714285715" y="-69" as="targetPoint"/>
                    </mxGeometry>
                </mxCell>
                <mxCell id="08ULeDQdYxicm4fCYWU1-5" value="db.collection('tasks').add(taskModel)" style="html=1;verticalAlign=bottom;endArrow=block;entryX=0;entryY=0;rounded=0;" edge="1" target="08ULeDQdYxicm4fCYWU1-4" parent="1" source="1Y-mKMKKc6OOz6_AkFGi-2">
                    <mxGeometry relative="1" as="geometry">
                        <mxPoint x="1640" y="-90" as="sourcePoint"/>
                    </mxGeometry>
                </mxCell>
                <mxCell id="08ULeDQdYxicm4fCYWU1-6" value="&quot;Task Added&quot;" style="html=1;verticalAlign=bottom;endArrow=open;dashed=1;endSize=8;exitX=0;exitY=0.95;rounded=0;" edge="1" source="08ULeDQdYxicm4fCYWU1-4" parent="1" target="1Y-mKMKKc6OOz6_AkFGi-2">
                    <mxGeometry relative="1" as="geometry">
                        <mxPoint x="1640" y="-14" as="targetPoint"/>
                    </mxGeometry>
                </mxCell>
            </root>
        </mxGraphModel>
    </diagram>
</mxfile>